<?xml version="1.0" encoding="UTF-8" standalone="no"?>
<svg
   xmlns:dc="http://purl.org/dc/elements/1.1/"
   xmlns:cc="http://creativecommons.org/ns#"
   xmlns:rdf="http://www.w3.org/1999/02/22-rdf-syntax-ns#"
   xmlns:svg="http://www.w3.org/2000/svg"
   xmlns="http://www.w3.org/2000/svg"
   xmlns:sodipodi="http://sodipodi.sourceforge.net/DTD/sodipodi-0.dtd"
   xmlns:inkscape="http://www.inkscape.org/namespaces/inkscape"
   width="200"
   height="122"
   version="1.1"
   id="svg12"
   sodipodi:docname="bg-pattern-home-6-about-5.svg"
   inkscape:version="0.92.5 (2060ec1f9f, 2020-04-08)">
  <metadata
     id="metadata18">
    <rdf:RDF>
      <cc:Work
         rdf:about="">
        <dc:format>image/svg+xml</dc:format>
        <dc:type
           rdf:resource="http://purl.org/dc/dcmitype/StillImage" />
        <dc:title></dc:title>
      </cc:Work>
    </rdf:RDF>
  </metadata>
  <defs
     id="defs16" />
  <sodipodi:namedview
     pagecolor="#ffffff"
     bordercolor="#666666"
     borderopacity="1"
     objecttolerance="10"
     gridtolerance="10"
     guidetolerance="10"
     inkscape:pageopacity="0"
     inkscape:pageshadow="2"
     inkscape:window-width="1600"
     inkscape:window-height="821"
     id="namedview14"
     showgrid="false"
     inkscape:zoom="1.6388889"
     inkscape:cx="100"
     inkscape:cy="72"
     inkscape:window-x="0"
     inkscape:window-y="0"
     inkscape:window-maximized="1"
     inkscape:current-layer="svg12" />
  <g
     id="g10"
     style="fill:none;fill-rule:evenodd">
    <path
       d="M 100,144 H 0 V 44 h 100 z"
       id="path2"
       inkscape:connector-curvature="0"
       style="fill:#2c6269" />
    <path
       d="m 100,44 c 55.228,0 100,44.772 100,100 0,55.228 -44.772,100 -100,100 C 44.772,244 0,199.228 0,144 0,88.772 44.772,44 100,44 Z m 0,67 c -18.225,0 -33,14.775 -33,33 0,18.225 14.775,33 33,33 18.225,0 33,-14.775 33,-33 0,-18.225 -14.775,-33 -33,-33 z"
       id="path4"
       inkscape:connector-curvature="0"
       style="fill:#004047" />
    <path
       d="m 100,140 v 4 H 0 v -4 z m 0,-8 v 4 H 0 v -4 z m 0,-8 v 4 H 0 v -4 z m 0,-8 v 4 H 0 v -4 z m 0,-8 v 4 H 0 v -4 z m 0,-8 v 4 H 0 v -4 z"
       id="path6"
       inkscape:connector-curvature="0"
       style="fill:#f67e7e" />
    <path
       d="m 4,40 v 4 H 0 v -4 z m 7,0 v 4 H 7 v -4 z m 7,0 v 4 h -4 v -4 z m 7,0 v 4 h -4 v -4 z m 7,0 v 4 h -4 v -4 z m 7,0 v 4 h -4 v -4 z m 7,0 v 4 h -4 v -4 z m 7,0 v 4 H 49 V 40 Z M 4,32 v 4 H 0 v -4 z m 7,0 v 4 H 7 v -4 z m 7,0 v 4 h -4 v -4 z m 7,0 v 4 h -4 v -4 z m 7,0 v 4 h -4 v -4 z m 7,0 v 4 h -4 v -4 z m 7,0 v 4 h -4 v -4 z m 7,0 v 4 H 49 V 32 Z M 4,24 v 4 H 0 v -4 z m 7,0 v 4 H 7 v -4 z m 7,0 v 4 h -4 v -4 z m 7,0 v 4 h -4 v -4 z m 7,0 v 4 h -4 v -4 z m 7,0 v 4 h -4 v -4 z m 7,0 v 4 h -4 v -4 z m 7,0 v 4 H 49 V 24 Z M 18,16 v 4 h -4 v -4 z m 14,0 v 4 h -4 v -4 z m -7,0 v 4 h -4 v -4 z m 21,0 v 4 h -4 v -4 z m -7,0 v 4 H 35 V 16 Z M 4,16 v 4 H 0 v -4 z m 7,0 v 4 H 7 v -4 z m 42,0 v 4 H 49 V 16 Z M 4,8 v 4 H 0 V 8 Z m 7,0 v 4 H 7 V 8 Z m 7,0 v 4 H 14 V 8 Z m 7,0 v 4 H 21 V 8 Z m 7,0 v 4 H 28 V 8 Z m 7,0 v 4 H 35 V 8 Z m 7,0 v 4 H 42 V 8 Z m 7,0 v 4 H 49 V 8 Z M 4,0 V 4 H 0 V 0 Z m 7,0 V 4 H 7 V 0 Z m 7,0 V 4 H 14 V 0 Z m 7,0 V 4 H 21 V 0 Z m 7,0 V 4 H 28 V 0 Z m 7,0 V 4 H 35 V 0 Z m 7,0 V 4 H 42 V 0 Z m 7,0 V 4 H 49 V 0 Z"
       id="path8"
       inkscape:connector-curvature="0"
       style="fill:#79c8c7" />
  </g>
</svg>
